<?xml version="1.0" encoding="UTF-8"?>
<svg id="Capa_1" data-name="Capa 1" xmlns="http://www.w3.org/2000/svg" version="1.1" viewBox="0 0 640 480">
  <defs>
    <style>
      .cls-1 {
        fill: #000;
      }

      .cls-1, .cls-2, .cls-3, .cls-4, .cls-5, .cls-6, .cls-7 {
        stroke-width: 0px;
      }

      .cls-2 {
        fill: #ffce00;
      }

      .cls-3 {
        fill: #f7931e;
      }

      .cls-4 {
        fill: none;
      }

      .cls-5 {
        fill: #d80000;
      }

      .cls-6 {
        fill: #fff;
      }

      .cls-7 {
        fill: #adadad;
      }
    </style>
  </defs>
  <polygon class="cls-5" points="221.32 220.05 198.72 184.34 198.72 162.32 203.52 177.66 210.02 151.8 221.32 133.68 222.64 115.62 231.08 133.68 229.09 162.32 240.96 144.52 250.46 128.43 250.46 97.35 232.65 54.27 265.02 102.45 265.02 124.9 278.24 94.53 278.24 80.4 294.37 50.66 287.41 76.16 287.41 94.53 300.84 78.99 307.32 62.75 325.6 10.48 339.74 35.91 339.74 65.57 381.55 50.66 403.07 1.3 403.07 70.51 392.33 102.45 381.55 133.68 420.07 121.86 429.69 102.45 438.47 70.51 438.47 118.54 429.69 144.52 416.47 167.98 403.07 199.78 438.47 184.34 455.9 153.91 474.58 121.86 469.03 171.77 452.73 199.78 433.89 222.44 463.04 212.73 474.58 199.78 486.04 199.78 474.58 209.87 469.03 220.05 459.66 226.36 454.93 247.26 413.78 290.32 378.82 301.68 292.03 283.58 208.91 238.63 208.1 209.87 221.32 220.05"/>
  <polygon class="cls-5" points="232.11 220.05 130.08 171.77 92.38 126.31 82.76 133.68 42.75 92.42 25.48 144.52 19.2 171.77 2.28 167.41 39.68 224.4 122.6 270.96 96.89 317.39 55.92 317.39 160.45 371.52 65.11 445.8 117.2 454.72 191.65 436.08 191.65 445.8 258.85 415.35 319.84 380.86 370.48 377.03 389.84 404.79 408.39 383.08 575.78 433.53 600.45 404.79 500.16 333.72 497.34 301.75 603.98 264.47 635.06 248.34 614.57 231.45 640 199.78 640 171.77 618.81 186.29 612.46 125.87 589.86 153.91 564.99 158.24 570.92 144.52 542.33 179.28 491.07 215.97 443.76 235.04 232.11 220.05"/>
  <g>
    <polygon class="cls-4" points="222.64 372.72 235.54 366.15 224.18 346.04 222.64 372.72"/>
    <polygon class="cls-4" points="230.18 316.39 225.54 322.41 224.98 332.21 237.19 321.17 230.18 316.39"/>
    <polygon class="cls-4" points="248.03 243.03 248.03 245.49 252.41 247.61 254.07 245.95 248.03 243.03"/>
    <polygon class="cls-4" points="403.07 280.77 405.51 277.1 394.29 282.82 394.87 284.95 403.07 280.77"/>
    <polygon class="cls-4" points="344.41 289.73 343.74 291.85 354.56 297.09 355.91 295.3 344.41 289.73"/>
    <polygon class="cls-4" points="361.21 297.87 357.82 296.23 361.26 300.06 361.21 297.87"/>
    <polygon class="cls-4" points="389.84 285.09 383.02 288.57 383.14 290.93 388.2 288.35 389.84 285.09"/>
    <polygon class="cls-4" points="273.07 311.25 272.54 311.06 244.63 338.25 254.69 356.39 260.32 353.52 261.22 323.1 273.07 311.25"/>
    <polygon class="cls-4" points="455.73 313.28 456.62 333.48 450.29 341.95 452.96 344.76 458.84 347.61 469.03 329.27 455.73 313.28"/>
    <polygon class="cls-4" points="295.92 266.24 292.79 264.72 292.03 266.81 300.61 270.96 295.92 266.27 295.92 266.24"/>
    <polygon class="cls-4" points="327 281.3 327 276.01 326.8 275.57 319.84 280.28 331.36 285.86 329.98 282.74 327 281.3"/>
    <polygon class="cls-4" points="267.9 252.66 269.38 255.83 272.04 257.12 272.04 254.66 267.9 252.66"/>
    <polygon class="cls-4" points="418.63 324.15 418.63 328.13 421.5 329.52 421.5 323.02 418.63 324.15"/>
    <polygon class="cls-4" points="323.58 252.92 323.34 252.92 323.34 239.09 321.72 238.07 321.72 252.92 321.72 253.73 321.72 254.54 321.72 256.01 323.21 255.3 323.58 252.92"/>
    <polygon class="cls-4" points="325.55 240.49 325.38 240.38 325.38 241.54 325.55 240.49"/>
    <polygon class="cls-1" points="433.16 358.09 421.5 344.02 421.5 329.52 418.63 328.13 418.63 358.17 416.47 364.18 442.91 373.94 432.71 358.64 433.16 358.09"/>
    <polygon class="cls-1" points="457.67 349.72 458.84 347.61 452.96 344.76 457.67 349.72"/>
    <polygon class="cls-1" points="272.82 310.79 272.54 311.06 273.07 311.25 283.49 300.83 295.61 312.95 298.47 302.86 312.17 302.83 312.17 312.9 327.28 312.9 327.26 315.59 328.76 313.54 335.24 311.72 337.55 304.54 337.89 311.09 343.57 311.09 344.37 310.69 354.56 297.09 343.74 291.85 339.7 304.67 331.36 285.86 319.84 280.28 313.93 284.28 300.61 270.96 292.03 266.81 282.79 292.42 272.04 262.12 272.04 257.12 269.38 255.83 271.16 259.65 248.03 291.89 228.41 268.2 227.91 274.51 213.25 289.17 220.04 291.68 227.47 282.13 272.82 310.79"/>
    <polygon class="cls-1" points="474.58 385.62 560.13 417.2 575.78 404.25 484.52 360.05 474.58 385.62"/>
    <polygon class="cls-1" points="152.82 199.37 125.83 186.29 92.38 244.56 124.25 256.32 110.06 242.13 152.82 199.37"/>
    <polygon class="cls-1" points="184.64 240.48 180.48 239.96 171.71 247.61 159.13 227.92 141.7 241.43 188.75 280.13 193.33 281.82 184.64 273.12 184.64 240.48"/>
    <polygon class="cls-1" points="480.47 288.1 456.92 257.75 452.73 272.14 475.51 301.68 570.92 263.98 518.59 221.9 481.42 240.84 494.64 254.24 480.47 288.1"/>
    <polygon class="cls-1" points="388.2 288.35 383.14 290.93 383.48 297.76 388.2 288.35"/>
    <polygon class="cls-1" points="418.63 297.03 436.23 296.5 437.22 294.86 439.51 296.41 441.64 296.34 429.72 282.01 433.64 265.2 408.39 278.06 418.63 288.31 418.63 297.03"/>
    <polygon class="cls-1" points="421.5 320.96 424.52 315.95 418.63 315.95 418.63 324.15 421.5 323.02 421.5 320.96"/>
    <polygon class="cls-1" points="397.86 295.83 397.86 288.58 403.07 280.77 394.87 284.95 397.86 295.83"/>
    <polygon class="cls-1" points="443.58 298.67 443.34 298.99 444.5 299.78 443.58 298.67"/>
    <polygon class="cls-1" points="221.32 395.58 243.97 381.09 235.54 366.15 222.64 372.72 221.32 395.58"/>
    <polygon class="cls-1" points="278.23 374.6 260.22 356.59 260.32 353.52 254.69 356.39 269.48 383.08 294.37 373.24 291.11 365.89 278.23 374.6"/>
    <polygon class="cls-1" points="90.85 439.88 110.72 445.8 196.99 411.71 198.72 384.91 90.85 439.88"/>
    <polygon class="cls-1" points="344.37 310.69 343.57 311.09 344.06 311.09 344.37 310.69"/>
    <polygon class="cls-2" points="625.93 197.45 617.14 207.67 592.89 206.62 610.58 197.75 602.81 195.42 612.16 178.84 609.35 151.8 603.54 171.15 587.66 182.79 592.17 167.74 584.77 175.72 571.45 197.95 577.34 166.2 543.22 213.52 544.5 187.01 535.36 217.45 542.32 238.75 566.7 253.92 587.5 255.59 608 248.72 590.04 249.23 582.55 241.09 605.92 242.95 585.68 230.64 606.16 229.41 593.73 225.68 617.43 214.66 625.93 197.45"/>
    <polygon class="cls-1" points="272.04 233.71 261.94 239.88 267.9 252.66 272.04 254.66 272.04 233.71"/>
    <polygon class="cls-1" points="272.04 222.44 268.11 222.44 272.04 226.36 272.04 222.44"/>
    <path class="cls-1" d="M260.71,215.03l10.88-10.88h.45v-9.08l2.43-3.64v-2.37c-1.41-.78-7.19-3.52-19.05-3.52s-17.63,2.73-19.05,3.52v31.98l15.17-15.17,9.17,9.17Z"/>
    <path class="cls-1" d="M325.38,125.02l.35-.24c.27-.19,6.75-4.54,23.01-4.54,3.58,0,6.68.21,9.35.54V54.04c-1.38-.76-6.95-3.38-18.34-3.38s-16.96,2.62-18.34,3.38v50.46c1.01.47,1.52.82,1.59.86l.35.24v109.05l2.04,2.04v-91.69Z"/>
    <path class="cls-1" d="M396.91,160.92v-12.37c-1.52-.86-8.1-4.04-21.74-4.04-1.07,0-2.09.02-3.08.06v18.72c3.6-1.23,9.63-2.59,18.72-2.59,2.21,0,4.23.08,6.09.22Z"/>
    <path class="cls-1" d="M292.81,194.8v8.72l26.7-.8-14.24,19.71h-12.46v42.22l-.02.05,3.13,1.52.99-33.46,22.27-22.27,2.53,2.53v-106.55c-.09-.05-.19-.11-.32-.17-.22-.11-.48-.25-.81-.39-.24-.11-.51-.23-.81-.35-3.06-1.26-9.36-3.12-19.8-3.12-13.64,0-20.22,3.18-21.74,4.04v79.28l2.21-3.32,12.35,12.35Z"/>
    <path class="cls-1" d="M382.11,270.74l.9,17.83,6.82-3.48,3.28-6.54,1.17,4.27,11.22-5.72.77-1.15.5.5,5.77-2.94v-107.15c-1.2-.67-5.55-2.8-14.03-3.66-.27-.03-.53-.05-.81-.08-.27-.02-.54-.05-.81-.07-1.85-.14-3.88-.23-6.09-.23-9.34,0-15.36,1.49-18.72,2.71v85.26l13.69-1.58-3.67,22.03Z"/>
    <path class="cls-1" d="M334.16,212.54l13.71-.03v66.25l-3.46,10.98,11.49,5.57.49-.65,1.42,1.58,3.39,1.64-.69-27.45v-.15s.7-18.73.7-18.73l9.26-1.07v-124.58c-1.03-.58-4.42-2.24-10.77-3.24-.26-.04-.53-.08-.81-.12-.26-.04-.53-.07-.81-.11-2.65-.34-5.75-.56-9.35-.56-13.64,0-20.22,3.18-21.74,4.04v92.42l4.3,4.3,2.86-10.09Z"/>
    <path class="cls-1" d="M428.58,220.05c-6.03,0-10.68.62-14.12,1.39v51.1l19.81-10.1,9.48-40.76c-3.53-.88-8.5-1.64-15.17-1.64Z"/>
    <polygon class="cls-2" points="101.83 215.97 90.85 227.92 69.34 226.36 50.27 217.38 67.93 215.97 43.21 203.29 37.56 190.07 25.48 170.11 41.67 181.44 52.46 193.31 47.6 179.28 43.29 157.16 46.74 144.52 53.54 129.65 50.84 115.62 63.66 133.68 63.66 153.91 76.41 163.29 74.29 144.52 79.94 151.8 90.85 163.29 90.85 178.57 97.59 144.52 101.83 171.77 101.83 186.29 112.88 171.77 109.11 196.01 101.83 215.97"/>
  </g>
  <polygon class="cls-3" points="554.74 239.17 545.71 225.45 552.04 228.38 553.66 214.89 556.31 225.45 567.68 205.18 560.67 227.84 575.78 217.59 571.67 225.45 582.25 226.22 565.53 231.07 578.47 236.47 563.98 238.04 575.24 245.1 554.74 239.17"/>
  <polygon class="cls-3" points="99.54 212.86 103.17 197.62 98.12 203.29 96.16 184.68 93.46 196.54 79.97 176.58 85.37 189.53 71.34 183.06 77.28 189.53 66.49 190.07 61.57 186.29 69.18 194.72 79.97 200.86 67.02 201.94 81.05 206.8 74.04 209.49 83.75 211.11 80.11 217.38 90.76 213.81 91.3 218.12 99.54 212.86"/>
  <g>
    <polygon class="cls-6" points="159.28 199.78 116.93 242.13 171.15 296.35 146.33 321.17 136.08 286.1 112.88 309.3 156.04 352.46 191.65 288.8 133.92 241.32 160.36 220.82 172.77 240.24 191.65 223.79 159.28 199.78"/>
    <polygon class="cls-6" points="232.11 265.06 232.11 232.15 251.53 212.73 268.8 229.99 259.09 235.93 252.07 227.3 243.17 236.2 243.17 255.35 247.35 259.53 259.9 246.99 265.56 259.13 247.76 283.94 232.11 265.06"/>
    <polygon class="cls-6" points="287.95 208.53 287.95 196.81 281.21 190.07 276.89 196.54 276.89 208.86 273.65 208.95 265.02 217.59 276.89 217.59 276.89 261.29 282.83 278.01 287.95 263.82 287.95 217.59 302.79 217.59 309.8 207.87 287.95 208.53"/>
    <path class="cls-6" d="M337.84,217.38l-4.12,14.52-14.53-14.53-17.47,17.47-.87,29.47,13.69,13.69,14.36-9.71,10.04,22.66,4.08-12.95v-60.64h-5.18ZM327.6,258.59l-12.35,5.88-3.83-3.83v-23.63l9.17-5.4,10.25,6.47-3.24,20.5Z"/>
    <path class="cls-6" d="M302.14,307.7l-4.12,14.52-14.53-14.53-17.47,17.47-.87,29.47,13.69,13.69,14.36-9.71,10.04,22.66,4.08-12.95v-60.64h-5.18ZM291.91,348.91l-12.35,5.88-3.83-3.83v-23.63l9.17-5.4,10.25,6.47-3.24,20.5Z"/>
    <polygon class="cls-6" points="312.78 317.76 322.39 317.76 322.3 336.79 325.47 326.26 331.69 317.76 338.16 315.95 343.36 315.95 345.41 362.17 335.69 362.17 334.08 331.2 329.09 346.7 328.13 362.17 312.78 362.17 312.78 322.7 311.42 317.76 312.78 317.76"/>
    <path class="cls-6" d="M381.55,355.7l-4.32-85.24,2.7-16.19-14.03,1.62-.54,14.57,1.08,42.62-9.71-10.79-9.71,12.95,1.08,29.13,14.03,12.95,7.01-8.09v11.78l12.41-5.31ZM359.64,342.33l-4.47-12.47,3.19-12.47,5.93,6.42,3.35,18.52h-8Z"/>
    <g>
      <polygon class="cls-6" points="386.95 315.24 396.12 315.24 396.12 354.26 390.73 381.59 385.33 354.62 386.95 315.24"/>
      <polygon class="cls-6" points="386.37 302.83 391.11 307.57 394.99 303.69 391.79 292.04 386.37 302.83"/>
    </g>
    <polygon class="cls-6" points="413.78 302.03 413.78 290.32 407.03 283.58 402.72 290.05 402.72 302.36 399.48 302.46 390.85 311.09 402.72 311.09 402.72 354.79 408.65 371.52 413.78 357.32 413.78 311.09 428.61 311.09 435.63 301.38 413.78 302.03"/>
    <polygon class="cls-6" points="450.07 215.97 435 280.76 474.89 328.72 458.7 357.86 448.45 347.07 438.74 358.94 464.64 397.78 491.07 329.8 447.37 273.15 454.93 247.26 479.2 278.55 488.92 255.35 450.07 215.97"/>
    <path class="cls-6" d="M450.72,309.84l-11.98-8.09-12.39,20.56v19.96l9.27,11.18,16.06-21.49-.97-22.12ZM443.06,330.88l-6.6,11.39-2.57-3.71v-14.69l5.14-7.73h4.04v14.74Z"/>
    <path class="cls-6" d="M265.02,311.61l-36.42-23.02-20.5,26.31-7.82,121.18,64.74-51.03-26.44-47.7,26.44-25.75ZM250.46,382.7l-34.53,22.09,4.86-84.16,8.35-10.83,15.89,10.83-19.6,17.73,25.03,44.34Z"/>
    <path class="cls-6" d="M226.72,242.94v-5.26l-20.3-20.3-16.93,17.47v36.26l17.47,17.47,16.24-16.24,1.86-23.47h-14.36l1.44,21.04-5.54,5.54-7.55-7.55,5-24.96h22.66ZM195.97,237.01l12.14-5.56,13.23,5.56-12.42,1.62-12.95-1.62Z"/>
  </g>
  <polygon class="cls-7" points="158.8 203.29 141.7 222.44 158.8 205.64 182.48 220.28 158.8 203.29"/>
  <polygon class="cls-7" points="170.61 231.07 173.31 236.47 178.7 232.15 173.31 232.69 170.61 231.07"/>
  <polygon class="cls-7" points="162.09 268.3 182.48 290.96 156.58 342.75 187.7 290.96 162.09 268.3"/>
  <polygon class="cls-7" points="131.76 295.27 116.9 309.8 137.16 328.72 127.03 309.8 131.76 295.27"/>
  <polygon class="cls-7" points="231.08 293.05 257.47 313.08 246.68 325.49 261.94 311.94 231.08 293.05"/>
  <polygon class="cls-7" points="237.19 341.07 257.09 384.91 235.54 404.79 260.8 384.91 237.19 341.07"/>
  <polygon class="cls-7" points="210.54 324.3 206.76 422.06 210.53 419.9 202.44 431.23 210.54 324.3"/>
  <polygon class="cls-7" points="282.75 310.69 268.8 323.24 283.91 313.53 295.15 321.93 282.75 310.69"/>
  <polygon class="cls-7" points="305.88 310.69 300.84 366.85 303.36 375.5 305.88 368.3 305.88 310.69"/>
  <polygon class="cls-7" points="268.8 351.49 278.24 359.38 278.24 356.39 273.07 351.49 268.8 351.49"/>
  <polygon class="cls-7" points="333 319.01 338.72 319.01 341.02 324.3 343.01 344.49 342.38 320.05 340.84 316.96 333 319.01"/>
  <polygon class="cls-7" points="313.47 320.05 318.97 321.17 321.13 333.72 321.13 320.05 313.47 320.05"/>
  <polygon class="cls-7" points="313.58 347.61 313.58 359.38 323.58 359.38 316.3 357.29 313.58 347.61"/>
  <polygon class="cls-7" points="347.73 315.95 348.74 343.09 361.41 355.43 368.07 347.07 360.51 349.22 351.34 341.67 347.73 315.95"/>
  <polygon class="cls-7" points="358.56 315.95 365.74 323.24 365.03 319.59 357.82 311.76 358.56 315.95"/>
  <polygon class="cls-7" points="370.48 359.38 380.21 354.79 377.24 300.67 375.35 270.96 376.7 259.13 368.07 259.97 375.08 262.9 373.15 270.96 377.24 353 370.48 359.38"/>
  <polygon class="cls-7" points="388.2 302.34 390.85 303.31 392.78 301.75 391.72 295.83 393.96 302.83 391.08 305.26 388.2 302.34"/>
  <polygon class="cls-7" points="388.2 316.56 393.42 319.01 393.42 353.45 390.85 358.58 386.95 354.08 390.85 368.73 394.99 351.87 394.99 318.5 393.31 316.56 388.2 316.56"/>
  <polygon class="cls-7" points="404.43 289.73 407.61 285.86 412.56 290.28 413.24 302.73 410 290.93 404.43 289.73"/>
  <polygon class="cls-7" points="414.06 309.25 426.35 308.2 431.19 304.45 426.87 309.84 414.06 309.25"/>
  <polygon class="cls-7" points="399.9 303.26 393.4 309.84 400.46 305.26 402.05 304.45 402.05 303.61 399.9 303.26"/>
  <polygon class="cls-7" points="403.46 311.09 403.46 354.55 408.39 366.29 411.23 357.86 408.39 359.38 405.29 354.08 403.46 311.09"/>
  <polygon class="cls-7" points="427.95 321.17 439.48 304.45 449.53 310.92 439.83 307.14 427.95 321.17"/>
  <polygon class="cls-7" points="427.48 335.69 427.41 341.67 435.63 350.19 439.82 344.37 435 346.93 428.49 341.13 427.48 335.69"/>
  <polygon class="cls-7" points="446.01 353.52 441.64 359.38 464.1 394 469.03 379.5 465.18 384.83 443.92 359.38 446.01 353.52"/>
  <polygon class="cls-7" points="459.66 305.26 477.27 329.2 467.38 348.41 479.56 329.86 459.66 305.26"/>
  <polygon class="cls-7" points="450.29 221.9 438.47 275.57 451.69 226.36 463.04 237.19 450.29 221.9"/>
  <polygon class="cls-7" points="190.88 235.04 205.71 221.04 193.33 235.04 191.65 267.84 190.88 235.04"/>
  <polygon class="cls-7" points="221.33 251.14 221.33 270.96 207.12 285.71 222.4 271.54 222.84 251.14 221.33 251.14"/>
  <polygon class="cls-7" points="233.28 233.71 233.73 263.44 246.51 280.21 249.92 276.93 246.51 276.12 234.81 262.9 233.28 233.71"/>
  <polygon class="cls-7" points="254.07 216.77 263.4 229.99 265.56 229.45 254.07 216.77"/>
  <polygon class="cls-7" points="249.92 259.73 259.81 249.61 261.94 256.96 258.55 254.81 249.92 259.73"/>
  <polygon class="cls-7" points="278.9 196.03 282.08 192.15 287.03 196.57 287.71 209.02 284.46 197.22 278.9 196.03"/>
  <polygon class="cls-7" points="288.53 215.55 300.82 214.49 305.66 210.74 301.34 216.13 288.53 215.55"/>
  <polygon class="cls-7" points="274.37 209.55 267.87 216.13 274.93 211.55 276.52 210.74 276.52 209.9 274.37 209.55"/>
  <polygon class="cls-7" points="277.93 217.38 277.93 260.84 282.86 272.58 285.7 264.15 282.86 265.67 279.76 260.37 277.93 217.38"/>
  <polygon class="cls-7" points="318.12 221.55 304.17 234.1 319.28 224.39 330.52 232.79 318.12 221.55"/>
  <polygon class="cls-7" points="341.25 221.55 336.21 277.71 338.73 286.36 341.25 279.16 341.25 221.55"/>
  <polygon class="cls-7" points="304.17 262.35 313.61 270.24 313.61 267.25 308.44 262.35 304.17 262.35"/>
  <path class="cls-2" d="M280.67,108.07v36.45l3.24-32.07s6.82-6.17,21.75-6.36c0,0-9.88-2.88-24.99,1.97Z"/>
  <path class="cls-2" d="M329.76,128.55v46.42l3.24-40.84s6.82-7.86,21.75-8.09c0,0-9.88-3.67-24.99,2.51Z"/>
  <path class="cls-2" d="M323.83,57.73v36.45l3.24-32.07s6.82-6.17,21.75-6.36c0,0-9.88-2.88-24.99,1.97Z"/>
  <path class="cls-2" d="M375.08,167.7v36.45l3.24-32.07s6.82-6.17,21.75-6.36c0,0-9.88-2.88-24.99,1.97Z"/>
  <path class="cls-2" d="M238.49,192.15v22.24l3.11-18.36s7.61-7.16,18.21-6.83c0,0-12.24-3.6-21.32,2.95Z"/>
  <path class="cls-2" d="M416.62,225.83v22.24l3.11-18.36s7.61-7.16,18.21-6.83c0,0-12.24-3.6-21.32,2.95Z"/>
  <path class="cls-2" d="M375.08,147.29s12.37-.22,17.25,2.67c0,0-11.14-1.81-16.35,0l-.9-2.67Z"/>
</svg>