<?xml version="1.0" encoding="UTF-8"?>
<svg id="Capa_1" data-name="Capa 1" xmlns="http://www.w3.org/2000/svg" version="1.1" viewBox="0 0 640 480">
  <defs>
    <style>
      .cls-1 {
        fill: #000;
      }

      .cls-1, .cls-2, .cls-3 {
        stroke-width: 0px;
      }

      .cls-2 {
        fill: #db2223;
      }

      .cls-3 {
        fill: #353535;
      }
    </style>
  </defs>
  <path class="cls-2" d="M59.48,440.77c30.79,21.43,110.61,17.58,138.46-7.04,27.85-24.62,71.46-39.28,116.86-34.79,45.41,4.48,53.15,34.35,74.91,34.79,0,0-4.11-20.22,11.1-13.88,15.21,6.35,89.26,67.86,127.99,51.91,0,0-28.38-6.83-23.21-20.5,5.17-13.67,30.23,8.54,41.62,8.54s25.85-15.38,25.85-15.38c0,0-16.73,11.39-24.14,5.13-7.4-6.27-19.58-18.96-6.66-37.39,12.92-18.43,35.7-2.37,45.39-35.74,9.68-33.38,0-47.62,0-47.62,0,0,2.14,20.19-14.59,23.2-16.73,3-22.43-24.34-11.61-34.59,10.82-10.25,33.6-19.1,35.31-36.32,0,0-10.25,7.55-16.52,8.26-6.27.71-6.27-17.51,5.7-16.37s14.81-14.8,10.82-28.76c0,0-3.99,8.83-6.27,8.83s-33.6,7.97-6.83-76.32c0,0-43.86,13.74-59.23,33.36,0,0-16.52-1.2-6.27-24.4,0,0-21.07,15.54-21.64,43.44-.57,27.91-17.73,28.48-24.24,17.66s11.14-27.08,11.14-27.08c0,0-25.01-4.09-35.31,29.15,0,0-17.95,7.61-6.98-24.86,10.97-32.47-23.13-40.44-8.36-70.06,0,0-24.53,15.95-17.13,35.88s-21.05,13.67-13.09-6.83c7.96-20.5-15.88-42.15,30.21-66.64,0,0-24.57-12.53-43.06-2.28s-19.89-12.03-3.49-18.44c44.75-17.49,6.64-34.53,6.64-34.53,0,0,6.4,14.79-11.2,11.37-31.86-6.19,8.05-63.03,21.64-57.72,0,0-36.84-33.19-48.47,30.76-3.04,16.71-33.79,14.43-11.52-7.59,0,0-36.85-34.81-51.83,57.36-7.43,45.73-37.25,15.95-26.89-1.71,10.37-17.66,19.29-17.09,19.29-17.09,0,0-32.83-.57-45.65,33.03-12.82,33.6,5.98,60.37-4.84,68.92-10.82,8.54-35.88,3.42-26.77-37.59,0,0-29.05,10.82-15.95,48.41,13.1,37.59-37.75,44.66-37.95,24.9-.21-19.77,14.03-36.86,14.03-36.86,0,0-27.91-.65-30.76,21.32-2.85,21.97-36.64,5.71-39.11-12.93-2.47-18.64-23.53-30.6-23.53-30.6,0,0,20.94,19.94,6.76,18.51-14.18-1.43-19.88-20.79-12.47-39.02,0,0-37.02,20.43-30.19,64.04,0,0-10.25-2.52-9.11-19.04,0,0-15.95,29.05,6.27,55.25l-11.81-1.14s16.93,32.31,38.01,34.67l21.07,2.36s14.24-2.58,12.53,10.39-12.53,19.91-27.91,11.03c-15.38-8.88-26.77-23.45-26.77-23.45,0,0-6.83,30.52,27.91,46.18,34.74,15.66,15.95,44.14-2.28,27.05,0,0,2.28,21.84,26.77,23.73,24.49,1.9,18.8,35.58-2.28,23.86s-47.27-3.44-47.27-3.44c0,0,22.21,2.69,19.37,12.87-2.85,10.18-19.18,30.2-2.47,41.83Z"/>
  <g>
    <path class="cls-1" d="M250.08,256.06v-2.9c-1.72-.96-8.79-4.3-23.27-4.3s-21.54,3.34-23.27,4.3v8.06l46.54,24.27v-29.43Z"/>
    <path class="cls-1" d="M314.89,174.93l.43-.29c.33-.23,8.24-5.54,28.1-5.54,4.37,0,8.16.26,11.42.66v-81.52c-1.69-.93-8.49-4.13-22.4-4.13s-20.71,3.19-22.4,4.13v61.64c1.23.58,1.85,1,1.94,1.06l.43.29v135.7h2.5v-111.99Z"/>
    <path class="cls-1" d="M404.87,218.66v-15.11c-1.86-1.04-9.89-4.93-26.55-4.93-1.31,0-2.56.03-3.76.07v22.86c4.4-1.5,11.76-3.17,22.87-3.17,2.7,0,5.17.1,7.44.27Z"/>
    <path class="cls-1" d="M262.5,288.43l10.74-15c1.17-1.64,3.05-2.64,5.07-2.7l2.81-.08c2.26-.07,4.39,1.05,5.62,2.94l6.74,10.39c1.19,1.84,3.23,2.95,5.42,2.95h9.02v-133.16c-.11-.06-.24-.13-.39-.21-.26-.14-.59-.3-.99-.48-.29-.13-.62-.28-.99-.43-3.74-1.54-11.44-3.81-24.19-3.81-16.66,0-24.69,3.89-26.55,4.93v134.19l5.03,2.62c1.05-.46,1.97-1.19,2.66-2.15Z"/>
    <path class="cls-1" d="M423.98,227.1c-1.46-.82-6.78-3.42-17.13-4.48-.33-.03-.65-.07-.99-.1-.32-.03-.66-.06-.99-.08-2.26-.18-4.74-.28-7.44-.28-11.4,0-18.76,1.82-22.87,3.31v79.95l49.42-18.36v-59.96Z"/>
    <path class="cls-1" d="M352.65,296.95l-5.74,8.7c-.7,1.06-1.07,2.29-1.07,3.56,0,2.53,1.39,4.57,3.31,5.65l15.59-5.79,3.83-2.39c.88-.55,1.89-.88,2.92-.96v-127.18c-1.26-.71-5.39-2.74-13.16-3.96-.32-.05-.65-.1-.99-.15-.32-.05-.65-.09-.99-.13-3.24-.42-7.03-.69-11.42-.69-16.66,0-24.69,3.89-26.55,4.93v108.39h28.85c5.15,0,8.23,5.73,5.4,10.03Z"/>
    <path class="cls-1" d="M160.84,403.05l-5.76-12.45-78.5,29.16c-3.93,1.46-5.79,5.94-4.05,9.76,1.2,2.62,3.79,4.22,6.56,4.22.61,0,1.24-.08,1.85-.24l102.56-27.24-16.57.55c-2.6.09-4.99-1.39-6.08-3.75Z"/>
    <path class="cls-1" d="M466.93,326.01c1.29,0,2.55-.39,3.62-1.11l15.85-10.72c1.33-.9,2.94-1.27,4.53-1.05l13.85,1.97c-.02-.61-.11-1.23-.3-1.85l-12.08-39.78c-.95-3.13-3.82-5.12-6.9-5.12-.83,0-1.68.15-2.51.45l-59.02,21.92v35.29h42.96Z"/>
    <path class="cls-1" d="M387.57,311.09l.66,8.93c.25,3.38,3.06,5.99,6.45,5.99h29.3v-35.29l-40.21,14.94c2.1.94,3.63,2.97,3.81,5.43Z"/>
    <polygon class="cls-1" points="374.55 305.42 374.27 305.53 374.55 305.51 374.55 305.42"/>
    <path class="cls-1" d="M120.95,268.18l9.1,2.18c.49.12,1,.18,1.51.18h21.38c1.52,0,2.98.53,4.15,1.5l20.62,17.24c1.32,1.11,3.04,1.64,4.75,1.48l21.09-1.99v-23.68l-73.19-38.17c-1.07-.56-2.21-.82-3.33-.82-2.69,0-5.27,1.51-6.51,4.11l-17.92,37.52c-1.77,3.71-.09,8.12,3.67,9.73l8.91-7.84c1.58-1.39,3.73-1.92,5.78-1.43Z"/>
    <polygon class="cls-1" points="253.75 291.27 250.08 289.36 250.08 291.41 253.75 291.27"/>
    <path class="cls-1" d="M508.25,440.24c.89.36,1.81.53,2.71.53,3.03,0,5.87-1.93,6.87-5,1.08-3.35-.41-6.98-3.53-8.61l-54.12-28.22-51.38,1.03,99.46,40.27Z"/>
    <path class="cls-1" d="M220.38,287.17c1.71-.16,3.42.37,4.74,1.46l2.4,1.99c1.23,1.02,2.79,1.55,4.38,1.49l18.18-.7v-2.06l-46.54-24.27v23.68l16.84-1.59Z"/>
  </g>
  <path class="cls-1" d="M503.33,287.67s-9.42-9.06,3.22-22.97c12.64-13.91,12.62-35.02,12.62-35.02,0,0,4.6,16.04,1.39,25.59,0,0-1.49,15.14,7.34,6.48,8.83-8.67-3.34-30.61,12.75-38.46,0,0-2.63,2.67-1.46,6.65s10.2,5.5,10.75-1.71c.55-7.21,14.99-14.07,14.99-14.07,0,0-19.92,25.98-15.09,32.77s12.95-1.56,11.45-7.04,7.3,5.29,1.01,12.73-17.55,10.83-16.17,15.78,11.56,10.52,17.4.42c5.84-10.1,7.47-21.98,7.47-21.98,0,0,1.95,10.44,2.07,16.39.12,5.95-6.78,22.44-13.44,29.68s-11.66,12.22-21.93,13.02-25-4.56-34.36-18.27Z"/>
  <path class="cls-1" d="M109.56,239.59s6.78-8.57-5.26-18.65-14.4-27.57-14.4-27.57c0,0-1.99,13.8,1.74,21.35,0,0,2.94,12.37-5.35,6.19-8.29-6.18-.69-25.72-14.9-30.41,0,0,2.48,1.91,1.96,5.34s-7.83,5.71-9.1-.2-14-9.96-14-9.96c0,0,19.42,19.26,16.19,25.43-3.23,6.17-10.89.17-10.27-4.54s-5.45,5.21.6,10.65c6.05,5.44,15.76,6.98,15.17,11.24s-8.38,10.02-14.36,2.31c-5.98-7.7-8.66-17.35-8.66-17.35,0,0-.43,8.87.14,13.81s8.15,17.82,14.48,23.06c6.34,5.24,11.03,8.8,19.63,8.3,8.6-.5,20.19-6.6,26.38-19.01Z"/>
  <path class="cls-2" d="M460.62,273.22l.59-2.54c-4.31-1.07-10.39-2-18.53-2-7.36,0-13.04.76-17.25,1.7v16.54l35.19-13.7Z"/>
  <g>
    <path class="cls-1" d="M97.75,300.47s-.71.28-.85-1.07.53-1.12,1.37-1.52,6.29-3.42,9.6-6.66,7.37-8.95,9.16-9.29c1.79-.34,3.17-.55,4.82.83s6.35,4.8,12.82,3.11c16.11-4.2,30.86,5.58,29.74,7.16-1.38,1.93-3.58-2.89-21.89-2.62-3.41.05-10.86,1.12-15.56,2.89,0,0-4.27.83-4.49,7.21l-.05,3.01c-.08,4.76,4.37,8.3,9,7.18,5.01-1.21,11.37-2.15,17.17-1.25,11.98,1.86,17.76,6.92,19.51,9.81s7.64,17.04-12.91,23.65c-20.55,6.61-48.84,1.24-53.38-1.55,0,0-1.7-.46-1.29-2.27s6.25-.36,12.7.26c6.45.62,36.91,3.46,36.6-7.9,0,0,.31-1.76-1.96-2.58-2.27-.83-3.82-1.65-.31-3.72s2.07-4.96-.41-6.81c-2.26-1.69-4.95-5.62-33.47,1.99-4.59,1.23-9.11-2.2-9.16-6.96l-.12-12.27s.19-1.12-1.36-.98-5.28.36-5.28.36Z"/>
    <path class="cls-1" d="M184.93,306.02s-3.02,3.31-1.13,6.8c1.89,3.5,3.78,4.82,4.91,4.63,1.13-.19,9.64-7.84,9.64-7.84l5.78.8s-9.94,7.99-9.56,8.65,1.61,1.32,5.95,1.32,5.39-.47,6.61,2.46c1.23,2.93,3.68,6.61,2.46,6.9-1.23.28-10.58,1.61-17.29,0-6.71-1.61-17.67-5.86-18.99-12.94-1.32-7.09,2.83-8.98,4.91-10.77,2.08-1.8,7.46-8.41,8.6-8.5s1.86-.13,3.28,1.01,4.72.82,7.65.88c2.93.06,16.39.14,17.1,0,.71-.14,1.65-.61,2.22-.14.57.47,1.28,1.98.19,2.46-1.09.47-4.06,1.8-6.19,3.02s-6.94,5.66-6.94,5.66l-5.78-.8,3.04-2.74s.57-.66-.38-.9c-.94-.24-5.34-.28-8.79-.24-3.45.05-6.46-.05-7.29.28Z"/>
    <path class="cls-1" d="M229.22,306.03s-2.77.94-2.83,3.84,2.27,7.43,7.87,8.88c5.61,1.45,8.19,1.64,11.27,1.57,3.09-.06,4.22.31,4.79,1.95.57,1.64,2.77,5.61,3.02,6.3.25.69.06,1.45-1.32,1.64s-16,1.13-23.05-1.83c-7.05-2.96-12.91-7.87-13.16-13.61s7.5-11.15,11.59-13.23c4.09-2.08,9.51-2.46,16.38-2.46s12.85.44,13.29.31,2.58-1.26,3.46.69-3.02,2.65-5.04,3.91c-2.02,1.26-2.39,1.51-3.97,1.57-1.57.06-20.72-.06-22.3.44Z"/>
    <path class="cls-1" d="M271.93,322.07v-17.04s.31-1.45-3.02-1.83c-3.34-.38-5.1-2.39-3.97-3.46s10.77-.13,11.46-13.67c0,0-.13-4.85,1.89-4.98s1.76,5.54,1.7,7.81.5,9.95,4.79,9.95,17.89-.63,18.33-.19-1.76,1.51-3.28,2.2c-1.51.69-1.2,1.57-3.4,1.76-2.2.19-8.79-.54-11.18,1.69-1.57,1.47-.79,5.23-.85,9.52-.06,4.28,0,8.22,0,8.22,0,0,4.96,1.77.13,4.79-.42.26-7.37,3.72-8.63,3.65s-7.05-4.6-7.31-5.35.94-1.2,1.64-1.57c.69-.38,1.7-.69,1.7-1.51Z"/>
    <path class="cls-1" d="M170.18,352.61c.88,1.08.31,4.29.31,12.7s.23,10.22-.06,10.48-1.23,1.29-2.16,1.81-1.6.77-1.45,1.65,1.55,1.08,2.27,1.5,1.29.21,1.34,3.2-.41,8.05.23,9.34,7.56,3.46,8.44,3.92,1.29.67,2.22.62,2.12-.21,5.11-1.81,6.61-3.25,7.12-3.92.21-.93-.67-1.19-2.37-.72-3.36-1.14-1.39-.67-1.34-3.41-.15-4.54.46-4.96,2.89-1.7,3.1-2.01.41-.83-.57-1.29-2.58-1.03-2.79-1.96-.15-5.78-.15-5.78c0,0,2.07.15,4.7-.31,2.63-.46,10.02-2.17,12.65-2.17s7.38,1.08,8.78,3.46,1.86,5.16-1.08,6.14-2.12,2.07-1.19,2.48,3.36,1.08,3.61,2.32.36,3.92-2.58,5.89c-2.94,1.96-5.99,3.05-14.25,2.74,0,0-1.45-.46-2.17.36s-1.86,2.01-1.19,2.89,3.87,2.32,10.48,2.32,16.37-.62,23.23-5.32,7.43-10.17,7.49-13.01-1.6-8.26-8.42-12.39c-6.81-4.13-14.56-4.65-16.78-4.59s-1.55-.88.15-2.17c1.7-1.29,8.88-7.18,11.05-8.78,2.17-1.6,5.16-3.72,5.27-4.29s-.52-.72-2.22-.67-27,0-27,0l-3.1,6.88,14.87.05s1.14.31.1,1.29-3.51,3.2-5.63,4.75-5.32,3.82-7.64,4.85-6.2,2.27-7.64,2.48l-1.45.21-.05-12.44s-.1-1.19,1.6-1.14,5.83-.05,5.83-.05l3.1-6.88h-9.76s-.88.78-.77-3.66.21-6.4-.31-6.81-.88-1.55-3.41-1.34-3.41,1.7-5.89,4.8-5.99,5.89-7.38,7.07-6.71,4.39-7.95,5.06-.52,2.01.26,1.96,4.29-.21,5.06-.15,1.55.41,1.55.41Z"/>
    <path class="cls-1" d="M287.78,353.87c-.66-.28-1.98-.31-2.8,0-.82.31-1.67.19-2.3.13-.63-.06-7.59,0-10.42.13-2.83.13-7.78.13-8.82-.28s-3.31-1.98-4.63-1.83-2.65,2.14-4.79,3.68c-2.14,1.54-4.6,3.02-6.74,4.44-2.14,1.42-9.16,6.24-8.5,11.9.66,5.67,3.78,7.56,8.41,10.68,4.63,3.12,8.03,3.5,8.69,3.31.66-.19,8.13-6.39,9.07-6.55.59-.1.44,1.89.66,2.2.22.31,7.84,3.59,7.84,3.59,0,0,.41.31,1.1,0,.69-.31,5.04-3.4,6.24-4.57,1.2-1.17.66-1.26-.6-1.89-1.26-.63-2.02-.98-2.05-1.86-.03-.88-.47-13.32-.25-14.61.22-1.29.22-1.76,1.13-1.89s2.74-.98,4.06-1.64c1.32-.66,4.38-2.05,4.91-2.77.54-.72.44-1.89-.22-2.17ZM267.64,361.73c-.76.61-2.22,1.61-2.36,1.98s-.09,9.83-.09,9.83c0,0-.47.94-1.13,1.51-.66.57-1.19,1.42-3.05,1.37s-10.23-2.74-10.84-7.61c-.61-4.87,2.6-7.51,3.83-8.27,0,0,.52-.28,2.88-.24s9.07-.15,10.06,0c.99.15,1.46.81.71,1.42Z"/>
    <path class="cls-1" d="M295.22,377.98c.4-.42.24-10.44.24-10.44,0,0,.26-4.44.01-4.87l-.25-.43s-.76-.57-2.55-.9c-1.8-.33-5.29-1.8-4.87-3.07.43-1.28,1.61-1.61,2.74-1.04,1.13.57,2.6.41,3.83-.27,1.23-.68,4.77-2.71,5.24-3.04.47-.33,1.46.09,2.22.52s3.5,1.51,4.68,2.13c1.18.61,2.13,1.84,2.13,1.84,0,0,1.42-3.87,8.46-3.87s6.8,3.35,9.68,4.02c2.88.66,0,1.46.05,3.02.05,1.56,0,20.27,0,20.27,0,0,.05.52-.28.66s-5.86,3.44-6.93,3.44c-2.25,0-7.95-3.18-7.97-4.15-.03-1.95,2.95-2.36,4.5-3.45,0,0,.08-1.89.13-2.83.05-.94-.03-11.15-.03-11.15,0,0-.8-5.76-6.9-2.5,0,0-1.09.33-1.13,3.4l-.05,3.07-.19,13.98s.28.19-1.37.85c-1.65.66-6.57,2.83-6.57,2.83,0,0-1.18.38-2.65-.85-1.46-1.23-5.29-4.06-5.39-4.44s.05-.94.61-1.23c.57-.28,1.75-.61,2.6-1.51Z"/>
    <path class="cls-1" d="M374.27,378.81c-1.26-.63-2.02-.98-2.05-1.86-.03-.88-.47-13.32-.25-14.61,0,0-.03-3.47-.05-8.35-.04-7.93-.07-19.61.05-26.24.13-6.93-3.23-5.3-3.75-3.02-1.76,7.81-18.71,10.24-18.39,12.57.31,2.33,2.27,1.95,2.27,1.95h6.3c.82,0,.86,1.32.86,1.32v13.53c-.81-.06-1.44-.14-1.74-.26-1.04-.41-3.31-1.98-4.63-1.83-1.32.16-2.65,2.14-4.79,3.68-2.14,1.54-4.6,3.02-6.74,4.44-2.14,1.42-9.16,6.24-8.5,11.9s3.78,7.56,8.41,10.68c4.63,3.12,8.03,3.5,8.69,3.31.66-.19,8.13-6.39,9.07-6.55.59-.1.44,1.89.66,2.2.22.31,7.84,3.59,7.84,3.59,0,0,.41.31,1.1,0,.69-.31,5.04-3.4,6.24-4.57,1.2-1.17.66-1.26-.6-1.89ZM358.13,375.05c-.66.57-1.19,1.42-3.05,1.37-1.86-.05-10.23-2.74-10.84-7.61-.61-4.87,2.6-7.51,3.83-8.27,0,0,.52-.28,2.88-.24,1.75.03,5.88-.07,8.31-.06v8.78c0,2.31,0,4.5,0,4.5,0,0-.47.94-1.13,1.51Z"/>
    <g>
      <path class="cls-1" d="M381.35,380.09c-.1.75.09.79,1.29,1.73s5.17,3.87,5.48,4.13,1.07.06,2.05-.44,6.42-2.77,6.77-2.96.57-.35.54-2.46,0-16.63,0-16.63c0,0,.06-2.55,1.07-2.9,1.01-.35.31-1.57-.82-2.49s-5.79-3.28-6.9-3.78c-1.1-.5-1.2-.44-2.05,0-.85.44-2.74,1.48-3.87,2.08-1.13.6-1.8,1.13-3.43,1.13s-1.51-.38-2.3-.47-2.02.09-2.02,1.26,2.2,2.68,4.63,2.9c2.43.22,2.99,1.13,3.02,1.67s0,13.73,0,13.73c0,0,.19,1.29-.54,1.67s-2.83,1.1-2.93,1.83Z"/>
      <path class="cls-1" d="M385.44,354.24s2.8-2.08,4.13-2.08,4.06,1.61,5.89,2.55c1.83.94,1.54-1.92,1.51-3.65s-2.77-3.5-5.32-4.06c-2.55-.57-6.27,1.42-7.56,2.33-1.29.91-1.67,2.69-1.67,4.62s1.56,1.27,3.02.29Z"/>
    </g>
    <path class="cls-1" d="M409.89,377.62v-17.04s.31-1.45-3.02-1.83c-3.34-.38-5.1-2.39-3.97-3.46s10.77-.13,11.46-13.67c0,0-.13-4.85,1.89-4.98s1.76,5.54,1.7,7.81.5,9.95,4.79,9.95,17.89-.63,18.33-.19c.44.44-1.76,1.51-3.28,2.2-1.51.69-1.2,1.57-3.4,1.76s-8.79-.54-11.18,1.69c-1.57,1.47-.79,5.23-.85,9.52-.06,4.28,0,8.22,0,8.22,0,0,4.96,1.77.13,4.79-.42.26-7.37,3.72-8.63,3.65s-7.05-4.6-7.31-5.35.94-1.2,1.64-1.57c.69-.38,1.7-.69,1.7-1.51Z"/>
    <path class="cls-1" d="M345.28,298.32c-.66-.28-1.98-.31-2.8,0-.82.31-1.67.19-2.3.13-.63-.06-7.59,0-10.42.13-2.83.13-7.78.13-8.82-.28-1.04-.41-3.31-1.98-4.63-1.83-1.32.16-2.65,2.14-4.79,3.68-2.14,1.54-4.6,3.02-6.74,4.44-2.14,1.42-9.16,6.24-8.5,11.9.66,5.67,3.78,7.56,8.41,10.68,4.63,3.12,8.03,3.5,8.69,3.31.66-.19,8.13-6.39,9.07-6.55.59-.1.44,1.89.66,2.2.22.31,7.84,3.59,7.84,3.59,0,0,.41.31,1.1,0,.69-.31,5.04-3.4,6.24-4.57,1.2-1.17.66-1.26-.6-1.89-1.26-.63-2.02-.98-2.05-1.86-.03-.88-.47-13.32-.25-14.61.22-1.29.22-1.76,1.13-1.89.91-.13,2.74-.98,4.06-1.64,1.32-.66,4.38-2.05,4.91-2.77.54-.72.44-1.89-.22-2.17ZM325.14,306.18c-.76.61-2.22,1.61-2.36,1.98-.14.38-.09,9.83-.09,9.83,0,0-.47.94-1.13,1.51-.66.57-1.19,1.42-3.05,1.37s-10.23-2.74-10.84-7.61,2.6-7.51,3.83-8.27c0,0,.52-.28,2.88-.24,2.36.05,9.07-.15,10.06,0,.99.15,1.46.81.71,1.42Z"/>
    <path class="cls-1" d="M472.05,359.99c-.31-1.76-.94-6.17-5.42-6.55-4.47-.38-9.64.13-10.46-.57-.82-.69-2.52-1.95-3.34-1.57-.82.38-1.95,1.83-3.46,2.83-1.51,1.01-13.92,8.76-15.56,12.47-1.64,3.72-2.19,8.91,4.91,13.92,2.78,1.96,6.05,4.07,12.46,5.5.47.11.96,0,1.36-.27,3.55-2.48,19.22-15.83,19.51-17.07.31-1.39.31-6.93,0-8.69ZM461.84,366.73c0,3.97-3.47,5.79-4.25,6.3-3.3,2.16-5.33,1-8.4-.38-.12-.05-.24-.1-.36-.15-1.47-.54-11.53-4.78-.15-11.7,14.24-8.66,13.16,1.95,13.16,5.92Z"/>
    <path class="cls-1" d="M469.79,343.9s-.71.28-.85-1.07.53-1.12,1.37-1.52,6.29-3.42,9.6-6.66c3.3-3.24,7.37-8.95,9.16-9.29s3.17-.55,4.82.83c1.65,1.38,6.35,4.8,12.82,3.11,16.11-4.2,30.86,5.58,29.74,7.16-1.38,1.93-3.58-2.89-21.89-2.62-3.41.05-10.86,1.12-15.56,2.89,0,0-4.27.83-4.49,7.21l-.05,3.01c-.08,4.76,4.37,8.3,9,7.18,5.01-1.21,11.37-2.15,17.17-1.25,11.98,1.86,17.76,6.92,19.51,9.81s7.64,17.04-12.91,23.65c-20.55,6.61-48.84,1.24-53.38-1.55,0,0-1.7-.46-1.29-2.27s6.25-.36,12.7.26c6.45.62,36.91,3.46,36.6-7.9,0,0,.31-1.76-1.96-2.58s-3.82-1.65-.31-3.72,2.07-4.96-.41-6.81c-2.26-1.69-4.95-5.62-33.47,1.99-4.59,1.23-9.11-2.2-9.16-6.96l-.12-12.27s.19-1.12-1.36-.98-5.28.36-5.28.36Z"/>
  </g>
  <path class="cls-3" d="M161.49,316.76s5.13,7.21,2.66,8.73.49,1.33.67,2.56.28,6.08-4.37,8.64c0,0,15.38-5.7,1.04-19.93Z"/>
  <path class="cls-3" d="M102.48,340.46s9.3,4.11,23.61,3.8c0,0-13.86-1.77-23.61-3.8Z"/>
  <path class="cls-3" d="M168.61,349.76c-.6.04,1.9.95,3.8,0s1.9,2.47,1.9,5.7.38,16.99,0,18.51-2.77,3.61-2.76,4.75,2.38-.28,2.38,1.42-1.04,11.68-.19,12.63,5.32,2.56,6.17,3.13l.85.57s2.28-.85,4.84-1.99c0,0-1.61.38-4.75-.66-3.13-1.04-5.41.38-5.32-16.23.09-16.61,1.14-27.72-.28-28.95s-3.7.95-6.64,1.14Z"/>
  <path class="cls-3" d="M185.61,342.36s-1.14,6.54.38,6.73c1.52.19,16.52.09,21.64,0,5.13-.09,10.2-2.56,10.2-2.56,0,0-6.69.95-17.6,1.04-10.92.09-13.95,2.11-14.62-5.21Z"/>
  <path class="cls-3" d="M204.88,364.19s20.69.38,21.64,9.49c0,0,.38,2.75-1.71,3.42s-2.75,1.42-1.04,2.56,3.42,4.84.66,7.31c-2.75,2.47-6.27,5.89-10.82,6.55s9.4,2.36,14.71-7.46c5.32-9.82-.66-16.84-2.37-18.46-1.71-1.61-8.07-5.32-21.07-3.42Z"/>
  <path class="cls-3" d="M177.38,309.03s-9.75,13.35,16.33,18.48c0,0,7.47,1.65,13.99,0,0,0,.25-1.08-1.14-1.77l-1.39-.7s-.89,1.33-6.77.82c-5.89-.51-16.96-1.46-20.06-7.66s3.67-12.78,3.67-12.78c0,0-2.91,1.84-4.62,3.61Z"/>
  <path class="cls-3" d="M193.14,318.21l14.57-12.78s1.5-1.14,1.37-1.71.32-1.71-3.23-1.52c-3.54.19-12.09-.02-12.09-.02,0,0,10.51-.74,14.56-.8s5.82-.89,5.89,0-3.04,1.9-5.89,4.49c-2.85,2.59-15.19,12.34-15.19,12.34Z"/>
  <path class="cls-3" d="M266.5,300.91c.13.84,3.89,1.1,5.36,2.06s1.38,1.77,1.42,8.17,0,11.58,0,11.58c0,0,1.14-10.44,1.04-13.34s.57-6.98-.76-7.45-.97-2.61.84-3.56,3.71-6.45,3.43-9.01c0,0-1.9,6.17-3.46,7.54s-3.51,2.56-4.79,2.85-3.27-.05-3.09,1.16Z"/>
  <path class="cls-3" d="M283.63,306.44s-.43-4.37,6.08-4.56l6.5-.19,1.33-1.38s-4.98.33-8.83.59c-3.84.26-6.22,1.59-5.08,5.53Z"/>
  <path class="cls-3" d="M284.2,323.24s-1.52.57-.66,1.42-8.12,4.41-7.12,4.41,4.22-1.28,6.41-2.52,4.22-2.8,1.38-3.32Z"/>
  <path class="cls-3" d="M309.49,302.52s-9.49,5.82-10.38,9.81-.13,7.91,3.1,10.44,7.72,5.32,9.68,5.51c1.96.19,7.15-4.49,8.86-5.03s3.23-.22,3.54,1.42,5.06,3.68,6.27,3.61-2.59-1.65-2.97-4.31-.19-2.47-3.61-2.59-3.23.38-6.64,2.34c-3.42,1.96-8.35,2.59-12.53-1.96s-4.87-10.44.13-13.99c5-3.54,4.56-5.25,4.56-5.25Z"/>
  <path class="cls-3" d="M334.29,319.79s-.76-13.3,0-14.37,2.09-.94,6.08-3.22c3.99-2.28,5.76-3.67,4.05-3.16s-7.66,3.99-10.82,4.62-.93,8.36-.78,11.74,1.41,6.61,1.41,6.61l.06-2.21Z"/>
  <path class="cls-3" d="M323.98,308.47s-.44,10.51,0,8.73,1.11-7.59,1.54-8.73-1.03-1.58-1.54,0Z"/>
  <path class="cls-3" d="M252.17,357.94s-9.49,5.82-10.38,9.81-.13,7.91,3.1,10.44c3.23,2.53,7.72,5.32,9.68,5.51s7.15-4.49,8.86-5.03,3.23-.22,3.54,1.42,5.06,3.68,6.27,3.61-2.59-1.65-2.97-4.31-.19-2.47-3.61-2.59-3.23.38-6.64,2.34-8.35,2.59-12.53-1.96c-4.18-4.56-4.87-10.44.13-13.99s4.56-5.25,4.56-5.25Z"/>
  <path class="cls-3" d="M276.97,375.22s-.76-13.3,0-14.37,2.09-.94,6.08-3.22c3.99-2.28,5.76-3.67,4.05-3.16s-7.66,3.99-10.82,4.62-.93,8.36-.78,11.74c.15,3.38,1.41,6.61,1.41,6.61l.06-2.21Z"/>
  <path class="cls-3" d="M266.66,363.89s-.44,10.51,0,8.73,1.11-7.59,1.54-8.73-1.03-1.58-1.54,0Z"/>
  <path class="cls-2" d="M260.06,156.73c3.42-5.1,20.48-5.97,23.13-4.2s-2.92,2.73-9.98,4.2c-7.06,1.47-10.39,2.19-10.92,12.26-.3,5.69-1,12.75-2.23,12.75-2.82,0-3.95-19.12,0-25.01Z"/>
  <path class="cls-2" d="M316.71,92.19c3.42-5.1,20.48-5.97,23.13-4.2,2.65,1.77-2.92,2.73-9.98,4.2-7.06,1.47-10.39,2.19-10.92,12.26-.3,5.69-1,12.75-2.23,12.75-2.82,0-3.95-19.12,0-25.01Z"/>
  <path class="cls-2" d="M323.6,182.4c3.42-5.1,20.48-5.97,23.13-4.2,2.65,1.77-2.92,2.73-9.98,4.2-7.06,1.47-10.39,2.19-10.92,12.26-.3,5.69-1,12.75-2.23,12.75-2.82,0-3.95-19.12,0-25.01Z"/>
  <path class="cls-2" d="M381.07,233.43c3.42-5.1,20.48-5.97,23.13-4.2s-2.92,2.73-9.98,4.2c-7.06,1.47-10.39,2.19-10.92,12.26-.3,5.69-1,12.75-2.23,12.75-2.82,0-3.95-19.12,0-25.01Z"/>
  <path class="cls-2" d="M206.43,262.72s-.72-5.23,0-6.28,8.41-3.89,15.15-3.99c6.74-.09,11.87,1.04,10.73,1.9s-13.95,1.05-18.04,3.23-4.12,7.08-4.12,7.08l-3.72-1.94Z"/>
  <path class="cls-3" d="M106.75,300.4s-1.21,18.7,4.71,17.47c5.92-1.23,7.92-1.42,11.9-2.28,3.99-.85,7.21-1.44,11.39-1.72,0,0-6.27-1.47-14.52.12-8.26,1.59-9.49,3.02-10.54-1.07-1.04-4.08-2.37-9.02-2.94-12.53Z"/>
  <path class="cls-3" d="M120.7,296.6s.67-6.64,21.17-6.93c0,0-18.71-5.32-21.17,6.93Z"/>
  <path class="cls-3" d="M116.06,284.64s-3.7,5.38-6.46,7.48c0,0,5.51-4.83,7.5-6.06,1.99-1.23,3.04-2.01,5.13-.58,0,0-.65-4.54-6.17-.85Z"/>
  <path class="cls-3" d="M534.23,359.58s5.13,7.21,2.66,8.73.49,1.33.67,2.56.28,6.08-4.37,8.64c0,0,15.38-5.7,1.04-19.93Z"/>
  <path class="cls-3" d="M475.21,383.28s9.3,4.11,23.61,3.8c0,0-13.86-1.77-23.61-3.8Z"/>
  <path class="cls-3" d="M479.48,343.22s-1.21,18.7,4.71,17.47,7.92-1.42,11.9-2.28,7.21-1.44,11.39-1.72c0,0-6.27-1.47-14.52.12-8.26,1.59-9.49,3.02-10.54-1.07s-2.37-9.02-2.94-12.53Z"/>
  <path class="cls-3" d="M493.44,339.42s.67-6.64,21.17-6.93c0,0-18.71-5.32-21.17,6.93Z"/>
  <path class="cls-3" d="M488.79,327.46s-3.7,5.38-6.46,7.48c0,0,5.51-4.83,7.5-6.06,1.99-1.23,3.04-2.01,5.13-.58,0,0-.65-4.54-6.17-.85Z"/>
  <path class="cls-3" d="M221.8,306.76s-3.99,3.7-3.61,7.99,2.15,10.68,17.66,14.16c10.34,2.32,14.81.38,15.25,0s-1.77-6.01-1.77-6.01c0,0,.7,3.54.13,4.05s-6.32.57-11.23.25c-4.91-.32-18.13-5.56-18.17-11.64q-.03-4.87,1.74-8.8Z"/>
  <path class="cls-3" d="M232.37,304.6s17.57-.06,19.54-.89,5.46-3.22,6.15-2.75-1.58,1.61-2.72,2.37l-1.14.76s-1.21.7-3.04.89-18.79-.38-18.79-.38Z"/>
  <path class="cls-3" d="M291.54,360.25s4.25-.21,4.69,1.5.72,15.66.44,16.33-3.4,1.71-2.51,2.85l.89,1.14,4.18,2.94s-3.13-3.23-1.42-5.22c1.71-1.99,1.8-2.35,1.8-2.35,0,0,.38-16.22-.47-17.18s2.09-4.6,7.78-2.31c0,0-5.22-3.59-7.12-2.17s-3.61,3.42-5.32,3.04-2.94,1.44-2.94,1.44Z"/>
  <path class="cls-3" d="M314.78,359.85s2.97,1.65,2.97,9.18v9.62l-4.37,2.47s1.23,1.76,3.7,2.59l2.47.83s-4-1.8-3-2.85,3-.76,3-3.7v-2.94s.28-11.87-1.14-13.01-1.86-1.14-1.86-1.14l-1.77-1.04Z"/>
  <path class="cls-3" d="M404.88,356.36c.13.84,3.89,1.1,5.36,2.06s1.38,1.77,1.42,8.17c.05,6.41,0,11.58,0,11.58,0,0,1.14-10.44,1.04-13.34s.57-6.98-.76-7.45-.97-2.61.84-3.56c1.81-.95,3.71-6.45,3.43-9.01,0,0-1.9,6.17-3.46,7.54s-3.51,2.56-4.79,2.85-3.27-.05-3.09,1.16Z"/>
  <path class="cls-3" d="M422.01,361.89s-.43-4.37,6.08-4.56l6.5-.19,1.33-1.38s-4.98.33-8.83.59c-3.84.26-6.22,1.59-5.08,5.53Z"/>
  <path class="cls-3" d="M422.58,378.7s-1.52.57-.66,1.42-8.12,4.41-7.12,4.41,4.22-1.28,6.41-2.52,4.22-2.8,1.38-3.32Z"/>
  <path class="cls-3" d="M344.17,359.85s-9.53,6.23-8.01,11.17c1.52,4.94,9.37,11.26,12.02,11.64,2.66.38,9.87-3.97,9.87-3.97,0,0-5.57,4.35-7.21,5.24-1.65.89-2.66,1.06-8.23-2.32-5.57-3.38-8.35-5.74-8.73-11.39s10.29-10.37,10.29-10.37Z"/>
  <path class="cls-3" d="M360.21,340.27v14.92s-2.4,1.12-3.92.25c0,0,.4,2.06,2.98,1.86h.94l.63,20.18s-.89,2.33,2.66,4.14,6.65.55,8.01-.85-.04-.63-2.19-.38-5.44.89-5.7-4.56c-.25-5.44-2.03-28.6-1.65-33.41s-1.77-2.15-1.77-2.15Z"/>
  <path class="cls-3" d="M352.24,336.64s5.32-.93,10.51-3.72c5.19-2.78,6.58-3.92,7.09-1.39s0,6.58,0,6.58c0,0,1.77-7.77,1.01-9.83s-2.28.47-3.8,1.23-9.24,4.91-14.81,7.14Z"/>
  <path class="cls-3" d="M370.08,342.67v30.63s-4.18-15.06,0-30.63Z"/>
  <path class="cls-3" d="M397,361.02s-1.99,1.84-1.86,7.31c.13,5.47,0,12.56,0,12.56,0,0-1.64,2.53-4.17,3.04-2.53.51-8.55-3.16-8.55-3.16,0,0,4.75,2.35,6.65,1.74s4.3-8.83,4.05-15.16,3.89-6.33,3.89-6.33Z"/>
  <path class="cls-3" d="M379.19,359.85s4.81-.03,6.33,0,.76,6.01.76,6.01c0,0,.15-5.41-7.09-6.01Z"/>
  <path class="cls-3" d="M383.76,353.81l4.92-2.77s-.63-.24-2.21,0-.32-1.28.7-1.79-2.15-.67-3.41,1.27,0,3.3,0,3.3Z"/>
  <path class="cls-3" d="M445.61,358.83s-9.49,4.62-9.3,9.81c.19,5.19,9.4,11.27,12.06,11.93,2.66.66,15.11-6.35,15.11-6.35,0,0-7.61,6.73-10.37,8.34-2.75,1.61-4.08,1.9-10.25-1.99-6.17-3.89-8.07-7.16-7.88-11.93s10.63-9.81,10.63-9.81Z"/>
  <path class="cls-3" d="M460.52,357.5s3.74,1.34,2.96,7.42c-.78,6.08-4.86,8.16-4.86,8.16,0,0,8.88-3.13,5.77-12.06,0,0-.45-3.53-3.87-3.53Z"/>
</svg>